<svg xmlns="http://www.w3.org/2000/svg" width="144" height="144" viewBox="0 0 144 144" version="1.1">
	<path d="M 0 72.007 L 0 144.013 72.250 143.757 L 144.500 143.500 144.757 71.750 L 145.013 0 72.507 0 L 0 0 0 72.007 M 0.474 72.500 C 0.474 112.100, 0.598 128.154, 0.750 108.176 C 0.901 88.198, 0.901 55.798, 0.750 36.176 C 0.598 16.554, 0.474 32.900, 0.474 72.500 M 61.970 7 C 47.700 9.253, 35.178 15.989, 24.477 27.167 C 0.006 52.731, 0.207 92.893, 24.932 117.919 C 32.822 125.906, 40.768 130.899, 51.510 134.622 C 58.458 137.030, 61.065 137.398, 71.500 137.446 C 82.109 137.494, 84.519 137.166, 92.287 134.620 C 129.464 122.434, 148.044 80.723, 132.028 45.401 C 124.234 28.212, 109.592 15.117, 91.924 9.536 C 83.273 6.803, 70.218 5.698, 61.970 7 M 48.619 46.994 C 42.868 48.797, 38 55.517, 38 61.652 C 38 63.146, 38.947 66.326, 40.105 68.718 C 43.036 74.771, 47.674 77, 57.338 77 C 65.408 77, 67.408 78.095, 66.827 82.195 C 66.507 84.450, 66.216 84.506, 53.518 84.782 C 35.705 85.168, 34.571 87, 52.145 87 C 63.997 87, 65.897 86.771, 67.345 85.171 C 69.083 83.251, 69.476 80.259, 68.235 78.400 C 66.652 76.029, 62.814 75, 55.551 75 C 48.353 75, 47.787 74.832, 44.331 71.665 C 41.168 68.766, 40.639 67.620, 40.290 62.915 C 39.501 52.272, 45.091 47.976, 59.651 48.036 L 68.500 48.073 71.322 51.786 L 74.144 55.500 62.862 55.785 C 50.747 56.090, 48 57.140, 48 61.464 C 48 65.761, 49.972 66.779, 59.143 67.217 C 68.759 67.677, 71.840 69.050, 75.044 74.304 C 78.902 80.632, 76.863 88.814, 70.359 93.102 C 67.909 94.717, 65.535 94.988, 53.750 94.993 C 45.254 94.997, 40 95.382, 40 96 C 40 96.616, 45.017 97, 53.050 97 C 69.354 97, 74.295 95.016, 77.583 87.148 C 79.514 82.525, 79.364 79.367, 76.985 74.566 C 73.755 68.046, 70.876 66.555, 60.737 66.150 C 53.261 65.851, 51.762 65.498, 50.534 63.745 C 49.507 62.278, 49.377 61.163, 50.083 59.845 C 50.994 58.142, 52.677 58, 71.964 58 C 94.518 58, 96 58.334, 96 63.416 C 96 67.471, 93.058 69, 85.257 69 L 78.172 69 80.336 74.250 C 81.526 77.138, 83.022 79.837, 83.659 80.249 C 84.297 80.661, 87.798 84.598, 91.438 88.999 L 98.058 97 105.029 97 C 108.863 97, 111.991 96.662, 111.981 96.250 C 111.971 95.838, 108.820 91.743, 104.980 87.151 L 97.999 78.802 101.249 76.631 C 110.496 70.456, 109.958 55.451, 100.259 49 C 96.555 46.537, 96.169 46.497, 74 46.295 C 61.625 46.182, 50.204 46.497, 48.619 46.994" stroke="none" fill="#ffffff" fill-rule="evenodd"/>
</svg>